<?xml version="1.0" encoding="utf-8"?>
<!-- Generator: Adobe Illustrator 19.2.1, SVG Export Plug-In . SVG Version: 6.00 Build 0)  -->
<svg version="1.1" id="Layer_1" xmlns="http://www.w3.org/2000/svg" xmlns:xlink="http://www.w3.org/1999/xlink" x="0px" y="0px"
	 viewBox="0 0 612 792" style="enable-background:new 0 0 612 792;" xml:space="preserve">
<style type="text/css">
	.st0{fill:#FFFFFF;}
</style>
<g>
	<path class="st0" d="M372.9,378.4c0,0,0,0.6-0.6,0.6c-1.2,1.2-2.4,3-4.1,4.1L202.3,551.4c-7.1,7.1-17.1,10.6-26.6,10.6
		c-10,0-18.9-3.5-26.6-10.6c-14.8-14.8-14.8-37.8,0-53.1l139.9-141.1L149.2,216.1c-14.8-14.8-14.8-38.4,0-53.1
		c14.2-14.2,38.4-14.2,53.1,0l165.9,168.2c1.8,1.2,3,3,4.1,4.1c0.6,0,0.6,1.2,0.6,1.2c1.2,2.4,2.4,3.5,3,5.3c0,0.6,0.6,0.6,0.6,1.2
		c0.6,1.8,0.6,3,1.8,5.3c0,0.6,0.6,0.6,0.6,1.8s0,3,0,4.1c0,0.6,0.6,2.4,0.6,3c0,0.6-0.6,2.4-0.6,3c0,1.8,0,3,0,4.7
		c0,0.6-0.6,0.6-0.6,1.2c-1.2,2.4-1.2,4.1-1.8,5.3c0,0.6-0.6,0.6-0.6,1.8C375.3,374.3,374.1,376.1,372.9,378.4z"/>
</g>
</svg>
